<svg width="523" height="555" viewBox="0 0 523 555" fill="none" xmlns="http://www.w3.org/2000/svg">
<g filter="url(#filter0_ddi_6_844)">
<path d="M253.398 239.85L252.958 241.646L252.649 243.509L252.477 245.429L252.45 247.398L252.574 249.404L252.855 251.437L253.297 253.485L253.905 255.536L254.682 257.576L255.629 259.592L256.748 261.571L258.04 263.499L259.502 265.36L261.134 267.142L262.931 268.828L264.888 270.405L267.001 271.859L269.262 273.174L271.663 274.337L274.193 275.335L276.844 276.155L279.601 276.784L282.453 277.211L285.385 277.425L288.382 277.416L291.427 277.177L294.503 276.698L297.592 275.975L300.674 275.002L303.731 273.776L306.742 272.294L309.686 270.557L312.542 268.565L315.289 266.323L317.906 263.833L320.371 261.104L322.663 258.142L324.762 254.959L326.647 251.566L328.298 247.977L329.697 244.206L330.826 240.273L331.668 236.194L332.207 231.991L332.431 227.685L332.325 223.3L331.88 218.86L331.086 214.392L329.936 209.923L328.426 205.479L326.551 201.09L324.313 196.785L321.712 192.594L318.753 188.547L315.442 184.674L311.788 181.003L307.802 177.566L303.5 174.391L298.896 171.506L294.01 168.939L288.864 166.715L283.481 164.859L277.887 163.395L272.11 162.343L266.18 161.723L260.129 161.552L253.991 161.845L247.801 162.614L241.597 163.87L235.414 165.618L229.293 167.862L223.274 170.604L217.395 173.841L211.698 177.567L206.222 181.775L201.008 186.451L196.095 191.581L191.522 197.146L187.327 203.123L183.545 209.489L180.212 216.214L177.36 223.267L175.019 230.615L173.219 238.22L171.984 246.042L171.337 254.04L171.297 262.17L171.882 270.385L173.103 278.638L174.969 286.88L177.487 295.06L180.656 303.126L184.476 311.028L188.938 318.712L194.031 326.128L199.742 333.222L206.049 339.945L212.93 346.247L220.357 352.079L228.298 357.394L236.717 362.15L245.575 366.302L254.83 369.813L264.433 372.646L274.337 374.768L284.487 376.15L294.83 376.768L305.306 376.599L315.856 375.628L326.419 373.842L336.931 371.234L347.328 367.801L357.546 363.546L367.519 358.476L377.183 352.605L386.474 345.951L395.328 338.535L403.682 330.388L411.477 321.541L418.655 312.034L425.161 301.908L430.941 291.213L435.947 279.999L440.134 268.323L443.459 256.246L445.887 243.83L447.386 231.143L447.928 218.255L447.491 205.237L446.06 192.166L443.623 179.116L440.177 166.166L435.722 153.394L430.265 140.879L423.821 128.698L416.41 116.931L408.056 105.655L398.792 94.9438L388.657 84.8717L377.694 75.5092L365.953 66.924L353.49 59.1803L340.364 52.3385L326.642 46.4543L312.393 41.579L297.692 37.7585L282.618 35.0331L267.252 33.4375L251.68 33L235.989 33.7426L220.269 35.6805L204.612 38.8221L189.11 43.1688L173.855 48.7149L158.943 55.4474L144.463 63.3459L130.509 72.3832L117.17 82.5245L104.533 93.7282L92.683 105.946L81.7009 119.121L71.6641 133.193L62.6455 148.094L54.7132 163.749L47.9297 180.078L42.3516 196.998L38.0294 214.418L35.0068 232.245L33.3205 250.382L33 268.727L34.067 287.178L36.5353 305.63L40.4109 323.974L45.6915 342.104L52.3664 359.911L60.4168 377.289L69.8153 394.13L80.5264 410.329L92.5065 425.784L105.704 440.396L120.059 454.068L135.504 466.709L151.966 478.232L169.362 488.555L187.605 497.603L206.602 505.306L226.252 511.603L246.45 516.439L267.089 519.767L288.054 521.547L309.229 521.751L330.496 520.356L351.732 517.35L372.815 512.73L393.623 506.502L414.031 498.682L433.919 489.295L453.164 478.376L471.65 465.967L489.26 452.123" stroke="#7730DA" stroke-width="50" stroke-linecap="round" stroke-linejoin="round"/>
</g>
<defs>
<filter id="filter0_ddi_6_844" x="0" y="0" width="522.261" height="554.751" filterUnits="userSpaceOnUse" color-interpolation-filters="sRGB">
<feFlood flood-opacity="0" result="BackgroundImageFix"/>
<feColorMatrix in="SourceAlpha" type="matrix" values="0 0 0 0 0 0 0 0 0 0 0 0 0 0 0 0 0 0 127 0" result="hardAlpha"/>
<feOffset/>
<feGaussianBlur stdDeviation="4"/>
<feColorMatrix type="matrix" values="0 0 0 0 1 0 0 0 0 1 0 0 0 0 1 0 0 0 0.8 0"/>
<feBlend mode="normal" in2="BackgroundImageFix" result="effect1_dropShadow_6_844"/>
<feColorMatrix in="SourceAlpha" type="matrix" values="0 0 0 0 0 0 0 0 0 0 0 0 0 0 0 0 0 0 127 0" result="hardAlpha"/>
<feOffset dx="2" dy="2"/>
<feGaussianBlur stdDeviation="2"/>
<feColorMatrix type="matrix" values="0 0 0 0 0 0 0 0 0 0 0 0 0 0 0 0 0 0 0.3 0"/>
<feBlend mode="normal" in2="effect1_dropShadow_6_844" result="effect2_dropShadow_6_844"/>
<feBlend mode="normal" in="SourceGraphic" in2="effect2_dropShadow_6_844" result="shape"/>
<feColorMatrix in="SourceAlpha" type="matrix" values="0 0 0 0 0 0 0 0 0 0 0 0 0 0 0 0 0 0 127 0" result="hardAlpha"/>
<feOffset/>
<feGaussianBlur stdDeviation="1.5"/>
<feComposite in2="hardAlpha" operator="arithmetic" k2="-1" k3="1"/>
<feColorMatrix type="matrix" values="0 0 0 0 1 0 0 0 0 1 0 0 0 0 1 0 0 0 0.6 0"/>
<feBlend mode="normal" in2="shape" result="effect3_innerShadow_6_844"/>
</filter>
</defs>
</svg>
