<svg width="1500" height="670" viewBox="0 0 1500 670" fill="none" xmlns="http://www.w3.org/2000/svg">
<rect width="1500" height="670" fill="#FBF8EF"/>
<path d="M627.25 80.75H675.75L727 205.875H729.125L780.5 80.75H829.375V267H790.75V145.75H789.375L741 266.125H714.875L667 145.5H665.375V267H627.25V80.75ZM892.47 267H850.22L914.595 80.75H965.22L1029.47 267H987.345L973.47 224.5H906.22L892.47 267ZM916.22 193.75H963.47L940.595 123.25H939.095L916.22 193.75ZM1049.69 267V127.25H1088.44V267H1049.69ZM1069.07 109.375C1063.32 109.375 1058.36 107.458 1054.19 103.625C1050.11 99.7917 1048.07 95.1667 1048.07 89.75C1048.07 84.3333 1050.11 79.75 1054.19 76C1058.36 72.1667 1063.32 70.25 1069.07 70.25C1074.82 70.25 1079.73 72.1667 1083.82 76C1087.98 79.75 1090.07 84.3333 1090.07 89.75C1090.07 95.1667 1087.98 99.7917 1083.82 103.625C1079.73 107.458 1074.82 109.375 1069.07 109.375ZM1111.79 113.25V80.75H1264.66V113.25H1207.91V267H1168.66V113.25H1111.79ZM1288.88 267V80.75H1328.13V157.625H1408.01V80.75H1447.38V267H1408.01V190H1328.13V267H1288.88Z" fill="#0D304F"/>
<g filter="url(#filter0_ddi_6_807)">
<path d="M307.398 308.85L306.958 310.646L306.649 312.509L306.477 314.429L306.45 316.398L306.574 318.404L306.855 320.437L307.297 322.485L307.905 324.536L308.682 326.576L309.629 328.592L310.748 330.571L312.04 332.499L313.502 334.36L315.134 336.142L316.931 337.828L318.888 339.405L321.001 340.859L323.262 342.174L325.663 343.337L328.193 344.335L330.844 345.155L333.601 345.784L336.453 346.211L339.385 346.425L342.382 346.416L345.427 346.177L348.503 345.698L351.592 344.975L354.674 344.002L357.731 342.776L360.742 341.294L363.686 339.557L366.542 337.565L369.289 335.323L371.906 332.833L374.371 330.104L376.663 327.142L378.762 323.959L380.647 320.566L382.298 316.977L383.697 313.206L384.826 309.273L385.668 305.194L386.207 300.991L386.431 296.685L386.325 292.3L385.88 287.86L385.086 283.392L383.936 278.923L382.426 274.479L380.551 270.09L378.313 265.785L375.712 261.594L372.753 257.547L369.442 253.674L365.788 250.003L361.802 246.566L357.5 243.391L352.896 240.506L348.01 237.939L342.864 235.715L337.481 233.859L331.887 232.395L326.11 231.343L320.18 230.723L314.129 230.552L307.991 230.845L301.801 231.614L295.597 232.87L289.414 234.618L283.293 236.862L277.274 239.604L271.395 242.841L265.698 246.567L260.222 250.775L255.008 255.451L250.095 260.581L245.522 266.146L241.327 272.123L237.545 278.489L234.212 285.214L231.36 292.267L229.019 299.615L227.219 307.22L225.984 315.042L225.337 323.04L225.297 331.17L225.882 339.385L227.103 347.638L228.969 355.88L231.487 364.06L234.656 372.126L238.476 380.028L242.938 387.712L248.031 395.128L253.742 402.222L260.049 408.945L266.93 415.247L274.357 421.079L282.298 426.394L290.717 431.15L299.575 435.302L308.83 438.813L318.433 441.646L328.337 443.768L338.487 445.15L348.83 445.768L359.306 445.599L369.856 444.628L380.419 442.842L390.931 440.234L401.328 436.801L411.546 432.546L421.519 427.476L431.183 421.605L440.474 414.951L449.328 407.535L457.682 399.388L465.477 390.541L472.655 381.034L479.161 370.908L484.941 360.213L489.947 348.999L494.134 337.323L497.459 325.246L499.887 312.83L501.386 300.143L501.928 287.255L501.491 274.237L500.06 261.166L497.623 248.116L494.177 235.166L489.722 222.394L484.265 209.879L477.821 197.698L470.41 185.931L462.056 174.655L452.792 163.944L442.657 153.872L431.694 144.509L419.953 135.924L407.49 128.18L394.364 121.338L380.642 115.454L366.393 110.579L351.692 106.758L336.618 104.033L321.252 102.437L305.68 102L289.989 102.743L274.269 104.68L258.612 107.822L243.11 112.169L227.855 117.715L212.943 124.447L198.463 132.346L184.509 141.383L171.17 151.525L158.533 162.728L146.683 174.946L135.701 188.121L125.664 202.193L116.646 217.094L108.713 232.749L101.93 249.078L96.3516 265.998L92.0294 283.418L89.0068 301.245L87.3205 319.382L87 337.727L88.067 356.178L90.5353 374.63L94.4109 392.974L99.6915 411.104L106.366 428.911L114.417 446.289L123.815 463.13L134.526 479.329L146.506 494.784L159.704 509.396L174.059 523.068L189.504 535.709L205.966 547.232L223.362 557.555L241.605 566.603L260.602 574.306L280.252 580.603L300.45 585.439L321.089 588.767L342.054 590.547L363.229 590.751L384.496 589.356L405.732 586.35L426.815 581.73L447.623 575.502L468.031 567.682L487.919 558.295L507.164 547.376L525.65 534.967L543.26 521.123" stroke="#24C7B5" stroke-width="50" stroke-linecap="round" stroke-linejoin="round"/>
</g>
<path d="M976.25 553V366.75H1015.5V520.5H1095.38V553H976.25ZM1152.47 553H1110.22L1174.6 366.75H1225.22L1289.47 553H1247.35L1233.47 510.5H1166.22L1152.47 553ZM1176.22 479.75H1223.47L1200.6 409.25H1199.1L1176.22 479.75ZM1310.44 553V366.75H1384.94C1405.44 366.75 1420.86 371.25 1431.19 380.25C1441.52 389.167 1446.69 400.583 1446.69 414.5C1446.69 425.417 1443.48 434.292 1437.07 441.125C1430.73 447.875 1422.73 452.333 1413.07 454.5V456.375C1420.15 456.708 1426.77 458.708 1432.94 462.375C1439.19 466.042 1444.23 471.208 1448.07 477.875C1451.98 484.458 1453.94 492.333 1453.94 501.5C1453.94 511.333 1451.52 520.167 1446.69 528C1441.86 535.75 1434.69 541.875 1425.19 546.375C1415.69 550.792 1403.94 553 1389.94 553H1310.44ZM1378.94 444.75C1386.94 444.75 1393.61 442.625 1398.94 438.375C1404.27 434.125 1406.94 428.333 1406.94 421C1406.94 414.333 1404.57 408.958 1399.82 404.875C1395.07 400.708 1388.36 398.625 1379.69 398.625H1349.69V444.75H1378.94ZM1381.82 520.875C1392.82 520.875 1400.82 518.75 1405.82 514.5C1410.9 510.25 1413.44 504.625 1413.44 497.625C1413.44 489.958 1410.69 483.667 1405.19 478.75C1399.69 473.75 1392.23 471.25 1382.82 471.25H1349.69V520.875H1381.82Z" fill="#0D304F"/>
<defs>
<filter id="filter0_ddi_6_807" x="54" y="69" width="522.261" height="554.751" filterUnits="userSpaceOnUse" color-interpolation-filters="sRGB">
<feFlood flood-opacity="0" result="BackgroundImageFix"/>
<feColorMatrix in="SourceAlpha" type="matrix" values="0 0 0 0 0 0 0 0 0 0 0 0 0 0 0 0 0 0 127 0" result="hardAlpha"/>
<feOffset/>
<feGaussianBlur stdDeviation="4"/>
<feColorMatrix type="matrix" values="0 0 0 0 1 0 0 0 0 1 0 0 0 0 1 0 0 0 0.8 0"/>
<feBlend mode="normal" in2="BackgroundImageFix" result="effect1_dropShadow_6_807"/>
<feColorMatrix in="SourceAlpha" type="matrix" values="0 0 0 0 0 0 0 0 0 0 0 0 0 0 0 0 0 0 127 0" result="hardAlpha"/>
<feOffset dx="2" dy="2"/>
<feGaussianBlur stdDeviation="2"/>
<feColorMatrix type="matrix" values="0 0 0 0 0 0 0 0 0 0 0 0 0 0 0 0 0 0 0.3 0"/>
<feBlend mode="normal" in2="effect1_dropShadow_6_807" result="effect2_dropShadow_6_807"/>
<feBlend mode="normal" in="SourceGraphic" in2="effect2_dropShadow_6_807" result="shape"/>
<feColorMatrix in="SourceAlpha" type="matrix" values="0 0 0 0 0 0 0 0 0 0 0 0 0 0 0 0 0 0 127 0" result="hardAlpha"/>
<feOffset/>
<feGaussianBlur stdDeviation="1.5"/>
<feComposite in2="hardAlpha" operator="arithmetic" k2="-1" k3="1"/>
<feColorMatrix type="matrix" values="0 0 0 0 1 0 0 0 0 1 0 0 0 0 1 0 0 0 0.6 0"/>
<feBlend mode="normal" in2="shape" result="effect3_innerShadow_6_807"/>
</filter>
</defs>
</svg>
