<svg width="1500" height="665" viewBox="0 0 1500 665" fill="none" xmlns="http://www.w3.org/2000/svg">
<rect width="1500" height="665" fill="#0C0030"/>
<path d="M627.25 80.75H675.75L727 205.875H729.125L780.5 80.75H829.375V267H790.75V145.75H789.375L741 266.125H714.875L667 145.5H665.375V267H627.25V80.75ZM892.47 267H850.22L914.595 80.75H965.22L1029.47 267H987.345L973.47 224.5H906.22L892.47 267ZM916.22 193.75H963.47L940.595 123.25H939.095L916.22 193.75ZM1049.69 267V127.25H1088.44V267H1049.69ZM1069.07 109.375C1063.32 109.375 1058.36 107.458 1054.19 103.625C1050.11 99.7917 1048.07 95.1667 1048.07 89.75C1048.07 84.3333 1050.11 79.75 1054.19 76C1058.36 72.1667 1063.32 70.25 1069.07 70.25C1074.82 70.25 1079.73 72.1667 1083.82 76C1087.98 79.75 1090.07 84.3333 1090.07 89.75C1090.07 95.1667 1087.98 99.7917 1083.82 103.625C1079.73 107.458 1074.82 109.375 1069.07 109.375ZM1111.79 113.25V80.75H1264.66V113.25H1207.91V267H1168.66V113.25H1111.79ZM1288.88 267V80.75H1328.13V157.625H1408.01V80.75H1447.38V267H1408.01V190H1328.13V267H1288.88Z" fill="#EFEFEF"/>
<g filter="url(#filter0_ddi_6_829)">
<path d="M309.411 310L308.972 311.796L308.663 313.659L308.491 315.58L308.464 317.548L308.588 319.555L308.869 321.588L309.311 323.636L309.919 325.686L310.695 327.726L311.643 329.742L312.762 331.721L314.054 333.649L315.516 335.511L317.148 337.292L318.944 338.979L320.902 340.556L323.015 342.009L325.276 343.324L327.676 344.488L330.207 345.485L332.857 346.305L335.615 346.934L338.467 347.361L341.399 347.575L344.396 347.567L347.441 347.327L350.517 346.849L353.606 346.125L356.688 345.152L359.745 343.926L362.756 342.444L365.7 340.707L368.556 338.716L371.303 336.473L373.92 333.984L376.385 331.254L378.677 328.293L380.776 325.109L382.66 321.716L384.312 318.127L385.711 314.357L386.839 310.423L387.681 306.344L388.221 302.141L388.444 297.835L388.339 293.45L387.894 289.011L387.1 284.543L385.95 280.073L384.439 275.629L382.565 271.241L380.327 266.936L377.726 262.745L374.767 258.698L371.456 254.824L367.802 251.154L363.816 247.717L359.513 244.542L354.91 241.657L350.024 239.089L344.878 236.865L339.495 235.009L333.901 233.545L328.124 232.493L322.194 231.873L316.143 231.702L310.005 231.996L303.815 232.765L297.61 234.02L291.428 235.768L285.307 238.012L279.287 240.754L273.409 243.991L267.711 247.718L262.236 251.925L257.022 256.602L252.109 261.731L247.536 267.296L243.341 273.274L239.559 279.639L236.226 286.364L233.374 293.418L231.033 300.765L229.233 308.37L227.998 316.192L227.35 324.191L227.311 332.32L227.895 340.536L229.116 348.789L230.983 357.031L233.5 365.21L236.67 373.277L240.489 381.178L244.951 388.863L250.045 396.278L255.755 403.373L262.063 410.096L268.944 416.397L276.37 422.229L284.311 427.545L292.731 432.3L301.589 436.453L310.843 439.963L320.447 442.796L330.351 444.918L340.501 446.301L350.843 446.918L361.319 446.75L371.87 445.778L382.432 443.992L392.944 441.384L403.342 437.951L413.56 433.696L423.533 428.627L433.197 422.756L442.488 416.101L451.341 408.686L459.696 400.538L467.491 391.692L474.669 382.184L481.175 372.059L486.955 361.363L491.961 350.15L496.147 338.474L499.473 326.396L501.901 313.98L503.4 301.293L503.942 288.405L503.505 275.388L502.074 262.316L499.637 249.267L496.191 236.317L491.736 223.544L486.279 211.029L479.835 198.849L472.423 187.082L464.07 175.805L454.806 165.094L444.671 155.022L433.708 145.66L421.967 137.074L409.504 129.331L396.378 122.489L382.655 116.605L368.407 111.729L353.706 107.909L338.632 105.183L323.266 103.588L307.694 103.15L292.003 103.893L276.283 105.831L260.626 108.972L245.123 113.319L229.869 118.865L214.956 125.598L200.477 133.496L186.523 142.534L173.184 152.675L160.547 163.879L148.697 176.096L137.715 189.272L127.678 203.344L118.659 218.244L110.727 233.899L103.943 250.229L98.3654 267.148L94.0432 284.568L91.0206 302.396L89.3343 320.532L89.0138 338.878L90.0808 357.329L92.5491 375.78L96.4247 394.124L101.705 412.254L108.38 430.062L116.431 447.439L125.829 464.28L136.54 480.479L148.52 495.934L161.717 510.546L176.072 524.218L191.518 536.859L207.979 548.382L225.376 558.705L243.619 567.753L262.615 575.457L282.265 581.754L302.464 586.59L323.103 589.917L344.068 591.698L365.243 591.901L386.509 590.506L407.745 587.5L428.829 582.881L449.636 576.653L470.045 568.833L489.932 559.446L509.178 548.526L527.664 536.118L545.273 522.273" stroke="#7730DA" stroke-width="50" stroke-linecap="round" stroke-linejoin="round"/>
</g>
<path d="M976.25 553V366.75H1015.5V520.5H1095.38V553H976.25ZM1152.47 553H1110.22L1174.6 366.75H1225.22L1289.47 553H1247.35L1233.47 510.5H1166.22L1152.47 553ZM1176.22 479.75H1223.47L1200.6 409.25H1199.1L1176.22 479.75ZM1310.44 553V366.75H1384.94C1405.44 366.75 1420.86 371.25 1431.19 380.25C1441.52 389.167 1446.69 400.583 1446.69 414.5C1446.69 425.417 1443.48 434.292 1437.07 441.125C1430.73 447.875 1422.73 452.333 1413.07 454.5V456.375C1420.15 456.708 1426.77 458.708 1432.94 462.375C1439.19 466.042 1444.23 471.208 1448.07 477.875C1451.98 484.458 1453.94 492.333 1453.94 501.5C1453.94 511.333 1451.52 520.167 1446.69 528C1441.86 535.75 1434.69 541.875 1425.19 546.375C1415.69 550.792 1403.94 553 1389.94 553H1310.44ZM1378.94 444.75C1386.94 444.75 1393.61 442.625 1398.94 438.375C1404.27 434.125 1406.94 428.333 1406.94 421C1406.94 414.333 1404.57 408.958 1399.82 404.875C1395.07 400.708 1388.36 398.625 1379.69 398.625H1349.69V444.75H1378.94ZM1381.82 520.875C1392.82 520.875 1400.82 518.75 1405.82 514.5C1410.9 510.25 1413.44 504.625 1413.44 497.625C1413.44 489.958 1410.69 483.667 1405.19 478.75C1399.69 473.75 1392.23 471.25 1382.82 471.25H1349.69V520.875H1381.82Z" fill="#EFEFEF"/>
<defs>
<filter id="filter0_ddi_6_829" x="56.0138" y="70.1504" width="522.261" height="554.751" filterUnits="userSpaceOnUse" color-interpolation-filters="sRGB">
<feFlood flood-opacity="0" result="BackgroundImageFix"/>
<feColorMatrix in="SourceAlpha" type="matrix" values="0 0 0 0 0 0 0 0 0 0 0 0 0 0 0 0 0 0 127 0" result="hardAlpha"/>
<feOffset/>
<feGaussianBlur stdDeviation="4"/>
<feColorMatrix type="matrix" values="0 0 0 0 1 0 0 0 0 1 0 0 0 0 1 0 0 0 0.8 0"/>
<feBlend mode="normal" in2="BackgroundImageFix" result="effect1_dropShadow_6_829"/>
<feColorMatrix in="SourceAlpha" type="matrix" values="0 0 0 0 0 0 0 0 0 0 0 0 0 0 0 0 0 0 127 0" result="hardAlpha"/>
<feOffset dx="2" dy="2"/>
<feGaussianBlur stdDeviation="2"/>
<feColorMatrix type="matrix" values="0 0 0 0 0 0 0 0 0 0 0 0 0 0 0 0 0 0 0.3 0"/>
<feBlend mode="normal" in2="effect1_dropShadow_6_829" result="effect2_dropShadow_6_829"/>
<feBlend mode="normal" in="SourceGraphic" in2="effect2_dropShadow_6_829" result="shape"/>
<feColorMatrix in="SourceAlpha" type="matrix" values="0 0 0 0 0 0 0 0 0 0 0 0 0 0 0 0 0 0 127 0" result="hardAlpha"/>
<feOffset/>
<feGaussianBlur stdDeviation="1.5"/>
<feComposite in2="hardAlpha" operator="arithmetic" k2="-1" k3="1"/>
<feColorMatrix type="matrix" values="0 0 0 0 1 0 0 0 0 1 0 0 0 0 1 0 0 0 0.6 0"/>
<feBlend mode="normal" in2="shape" result="effect3_innerShadow_6_829"/>
</filter>
</defs>
</svg>
